# xmcd CD database file
#
# Track frame offsets:
#	150
#	26755
#	50955
#	70990
#	102717
#	122525
#	138005
#	163757
#	186117
#	219792
#	239905
#	259230
#
# Disc length: 3716 seconds
#
# Revision: 3
# Processed by: cddbd v1.5.2PL0 Copyright (c) Steve Scherf et al.
# Submitted via: CDex 1.51
#
DISCID=b80e820c
DTITLE=Big Daddy Kinsey - Ramblin' Man
DYEAR=1900
DGENRE=Blues
TTITLE0=Tippin' On In
TTITLE1=Little Rain Falling
TTITLE2=These Kinda Of Blues
TTITLE3=It's Over
TTITLE4=Ramblin' Man
TTITLE5=Nothing's Too Good For My Baby
TTITLE6=Treat Your Woman Right
TTITLE7=For The Love Of A Woman
TTITLE8=Bloody Tears
TTITLE9=Stayed Away Too Long
TTITLE10=Worst Feeling
TTITLE11=Dancing Shoes
EXTD=
EXTT0=
EXTT1=
EXTT2=
EXTT3=
EXTT4=
EXTT5=
EXTT6=
EXTT7=
EXTT8=
EXTT9=
EXTT10=
EXTT11=
PLAYORDER=
